# xmcd CD database file generated by MAGIX_Freedb v0.9beta0
# 
# Track frame offsets:
#      150
#      13975
#      27586
#      40511
#      52697
#      66058
#      78997
#      90575
#      101529
#      112977
#      125306
#      140188
#      156813
#      173290
# 
# Disc length: 2492 seconds
# 
# Revision: 0 
# Processed by: cddbd v1.4PL0 Copyright (c) Steve Scherf et al.
# Submitted via: MAGIX_Freedb v0.9beta0
# 
DISCID=a509ba0e
DTITLE=Albert West - The Best Of
DYEAR=1900
DGENRE=
TTITLE0=Albert West - O what a trill
TTITLE1=Albert West - Bitter tears
TTITLE2=Albert West - Ginny come lately
TTITLE3=Albert West - I'm just a lonely boy
TTITLE4=Albert West - My dear Rose
TTITLE5=Albert West - No true love ways
TTITLE6=Albert West - Put your head on your shoulder
TTITLE7=Albert West - Run to him
TTITLE8=Albert West - Sealed with a kiss
TTITLE9=Albert West - Tell Laura I love her
TTITLE10=Albert West - Cha-la-la I need you
TTITLE11=Albert West - For the good times
TTITLE12=Albert West - Song song blue
TTITLE13=Albert West - Knock tree times
EXTD=
EXTT0=
EXTT1=
EXTT2=
EXTT3=
EXTT4=
EXTT5=
EXTT6=
EXTT7=
EXTT8=
EXTT9=
EXTT10=
EXTT11=
EXTT12=
EXTT13=
PLAYORDER=
